<svg width="512" height="512" viewBox="0 0 512 512" fill="none" xmlns="http://www.w3.org/2000/svg">
  <path fill="#fff" d="M0 0h512v512H0z"/>
  <path fill="#B8E1FA" d="M0 0h512v512H0z"/>
  <g clip-path="url(#clip0)">
    <path d="M401 400l-72-18-6-24c19-19 33-45 37-72 10-3 18-12 20-24l5-37a28 28 0 0 0-18-30l1-35 7-7c11-11 20-31 1-59-14-21-38-32-71-32-13 0-43 0-71 19-80 1-90 39-90 75l3 39a28 28 0 0 0-20 30l5 37c2 13 11 22 23 25 4 25 16 51 34 69l-6 26-72 18c-47 12-80 54-80 103 0 5 4 9 9 9h432c5 0 9-4 9-9 0-49-33-91-80-103z" fill="#235098"/>
  </g>
  <defs>
    <clipPath id="clip0">
      <path fill="#fff" transform="translate(31 62)" d="M0 0h450v450H0z"/>
    </clipPath>
  </defs>
</svg>
